<svg version="1.1" xmlns="http://www.w3.org/2000/svg" xmlns:xlink="http://www.w3.org/1999/xlink" width="48" height="48"><defs><linearGradient x1="24.47711" y1="14.42928" x2="51.52959" y2="45.61198" gradientUnits="userSpaceOnUse" id="color-1"><stop offset="0" stop-color="#000000" stop-opacity="0.3"></stop><stop offset="1" stop-color="#000000" stop-opacity="0"></stop></linearGradient><filter id="dropshadow-base"><feColorMatrix type="matrix" values="0 0 0 0 0  0 0 0 0 0  0 0 0 0 0  0 0 0 .8 0"></feColorMatrix> <feOffset dx="0" dy="1"></feOffset> <feGaussianBlur stdDeviation="1"></feGaussianBlur> <feComposite in="SourceGraphic"></feComposite></filter><filter id="dropshadow-banner" x="-10%" y="-10%" width="120%" height="130%"><feColorMatrix type="matrix" values="0 0 0 0 0  0 0 0 0 0  0 0 0 0 0  0 0 0 .4 0"></feColorMatrix> <feOffset dx="0" dy="1"></feOffset> <feGaussianBlur stdDeviation="0.5"></feGaussianBlur> <feComposite in="SourceGraphic"></feComposite></filter></defs><g fill="none" fill-rule="nonzero" stroke="none" stroke-width="none" stroke-linecap="butt" stroke-linejoin="miter" stroke-miterlimit="10" stroke-dasharray="" stroke-dashoffset="0" font-family="none" font-weight="none" font-size="none" text-anchor="none" style="mix-blend-mode: normal"><path d="M2,24c0,-12.15026 9.84974,-22 22,-22c12.15026,0 22,9.84974 22,22c0,12.15026 -9.84974,22 -22,22c-12.15026,0 -22,-9.84974 -22,-22z" id="base 1 5" fill="#da5a5a" stroke-width="1"></path><path d="M24.47711,24.39877l2.9054,-9.96949h2.93389l15.00685,15.00685c-0.98433,3.87278 -2.99597,7.3355 -5.72777,10.081z" fill="url(#color-1)" stroke-width="1"></path><path d="M27.38251,14.42928h2.93388l-5.7111,11.97764c0.14242,1.28179 0.21363,2.40217 0.21363,3.36115c0,2.66803 -0.49847,4.00204 -1.49542,4.00204c-0.7216,0 -1.0824,-0.56019 -1.0824,-1.68057c0,-1.46219 0.53171,-3.29468 1.59512,-5.49747c-0.20888,-1.36725 -0.50322,-3.01459 -0.88301,-4.94202c-0.3703,-1.92744 -0.75483,-3.30892 -1.15361,-4.14446c-0.38929,-0.83554 -0.94948,-1.25331 -1.68057,-1.25331c-1.19634,0 -1.83724,0.89251 -1.92269,2.67752h-0.51272c0,-3.13327 0.93049,-4.69991 2.79146,-4.69991c1.07291,0 1.87047,0.63615 2.39268,1.90845c0.52221,1.2628 1.05867,4.01628 1.60936,8.26044z" id="path814 1 1" fill="none" stroke-width="0"></path><path d="M27.38251,14.42928h2.93388l-5.7111,11.97764c0.14242,1.28179 0.21363,2.40217 0.21363,3.36115c0,2.66803 -0.49847,4.00204 -1.49542,4.00204c-0.7216,0 -1.0824,-0.56019 -1.0824,-1.68057c0,-1.46219 0.53171,-3.29468 1.59512,-5.49747c-0.20888,-1.36725 -0.50322,-3.01459 -0.88301,-4.94202c-0.3703,-1.92744 -0.75483,-3.30892 -1.15361,-4.14446c-0.38929,-0.83554 -0.94948,-1.25331 -1.68057,-1.25331c-1.19634,0 -1.83724,0.89251 -1.92269,2.67752h-0.51272c0,-3.13327 0.93049,-4.69991 2.79146,-4.69991c1.07291,0 1.87047,0.63615 2.39268,1.90845c0.52221,1.2628 1.05867,4.01628 1.60936,8.26044z" id="path814 1 1" fill="#ffffff" stroke-width="0"></path><path d="M2,24c0,-12.15026 9.84974,-22 22,-22c12.15026,0 22,9.84974 22,22c0,12.15026 -9.84974,22 -22,22c-12.15026,0 -22,-9.84974 -22,-22z" id="base 1 1 1" fill="none" stroke-width="1"></path><g id="svg4611 1 1" fill="#000000" stroke-width="1" font-family="&quot;Times New Roman&quot;" font-weight="normal" font-size="14" text-anchor="start"><g id="layer1 1 1"><g id="text5540 1 1"></g></g></g><rect x="2" y="2" width="44" height="22" fill="none" stroke-width="1"></rect><path d="M2,24v-22h44v22z" fill="none" stroke-width="1"></path><path d="M2,24v-22h44v22z" fill="none" stroke-width="1"></path><path d="M2,24v-22h44v22z" fill="none" stroke-width="1"></path><path d="M2,24v-22h44v22z" fill="none" stroke-width="1"></path></g></svg>